<svg
	xmlns="http://www.w3.org/2000/svg" viewBox="0 0 100 100" fill="none" shape-rendering="auto" width="512" height="512">
	<metadata
		xmlns:dc="http://purl.org/dc/elements/1.1/"
		xmlns:cc="http://creativecommons.org/ns#"
		xmlns:rdf="http://www.w3.org/1999/02/22-rdf-syntax-ns#">
	</metadata>
	<mask id="viewboxMask">
		<rect width="100" height="100" rx="0" ry="0" x="0" y="0" fill="#fff" />
	</mask>
	<g mask="url(#viewboxMask)">
		<rect fill="#DAD9D6" width="100" height="100" x="0" y="0" />
		<g transform="matrix(1.2 0 0 1.2 -10 -10)">
			<g transform="translate(29, -10) rotate(-98 50 50)">
				<path d="M100 50A50 50 0 1 1 0 50a50 50 0 0 1 100 0Z" fill="#00AC8C"/>
			</g>
		</g>
		<g transform="matrix(.8 0 0 .8 10 10)">
			<g transform="translate(36, -15) rotate(104 50 50)">
				<path d="m50 7 50 86.6H0L50 7Z" fill="#E03A00"/>
			</g>
		</g>
		<g transform="matrix(.4 0 0 .4 30 30)">
			<g transform="translate(0, 21) rotate(27 50 50)">
				<path d="M0 0h100v100H0V0Z" fill="#004F6D"/>
			</g>
		</g>
	</g>
</svg>